<?xml version="1.0" standalone="no"?>
<!DOCTYPE svg PUBLIC "-//W3C//DTD SVG 20010904//EN"
 "http://www.w3.org/TR/2001/REC-SVG-20010904/DTD/svg10.dtd">
<svg version="1.0" xmlns="http://www.w3.org/2000/svg"
 width="2000.000000pt" height="2000.000000pt" viewBox="0 0 2000.000000 2000.000000"
 preserveAspectRatio="xMidYMid meet">
<metadata>
Created by potrace 1.14, written by Peter Selinger 2001-2017
</metadata>
<g transform="translate(0.000000,2000.000000) scale(0.100000,-0.100000)"
fill="#000" stroke="none">
<path d="M9987 16738 c-34 -55 -158 -269 -192 -333 -21 -38 -52 -92 -70 -120
-18 -27 -54 -90 -80 -140 -27 -49 -56 -101 -65 -115 -9 -14 -45 -77 -80 -140
-34 -63 -84 -151 -110 -195 -26 -44 -64 -109 -84 -145 -20 -36 -48 -85 -62
-110 -15 -25 -35 -60 -46 -78 -32 -57 -92 -162 -173 -302 -43 -74 -88 -153
-100 -175 -12 -22 -45 -78 -72 -125 -28 -47 -61 -105 -74 -130 -14 -25 -43
-76 -65 -115 -114 -195 -217 -376 -268 -470 -6 -11 -30 -51 -53 -90 -23 -38
-54 -93 -70 -121 -35 -63 -661 -1153 -673 -1174 -5 -8 -73 -127 -151 -265 -78
-137 -163 -287 -190 -331 -27 -45 -49 -85 -49 -88 0 -13 24 -4 73 27 105 67
176 110 297 175 36 19 77 43 92 54 14 10 29 18 32 18 4 0 25 11 47 26 22 14
55 33 72 43 18 10 73 42 122 70 50 28 97 55 105 61 8 5 62 37 120 70 58 33
112 65 120 70 8 5 71 41 140 81 187 107 186 106 227 132 21 13 66 39 101 58
34 19 78 43 97 54 27 16 260 151 540 312 17 10 50 30 75 44 25 15 62 37 83 48
20 12 52 30 70 40 17 10 73 42 122 70 50 28 97 56 105 61 8 5 85 49 170 98 85
50 196 114 245 142 50 29 104 60 120 70 17 9 75 43 130 75 55 32 118 69 140
81 37 20 416 240 495 287 19 11 49 28 65 37 124 66 141 85 111 119 -12 14
-268 458 -444 770 -35 63 -75 132 -88 153 -31 48 -58 96 -97 168 -16 30 -91
161 -165 290 -75 129 -170 296 -212 370 -77 136 -124 218 -209 365 -72 125
-78 137 -108 193 -30 57 -45 64 -66 30z"/>
<path d="M12240 12762 c-41 -22 -635 -364 -800 -461 -144 -85 -235 -138 -685
-397 -198 -114 -421 -242 -495 -285 -74 -42 -164 -94 -200 -115 -36 -20 -146
-85 -245 -142 -99 -58 -241 -140 -315 -182 -199 -114 -707 -407 -770 -445 -30
-18 -71 -42 -90 -53 -19 -10 -96 -54 -170 -97 -74 -43 -247 -143 -385 -223
-137 -79 -266 -153 -285 -165 -19 -11 -80 -46 -135 -77 -105 -60 -164 -94
-485 -280 -107 -63 -218 -126 -246 -142 -77 -42 -81 -49 -59 -111 10 -29 23
-58 29 -66 12 -16 73 -11 216 18 143 29 292 58 420 81 63 12 156 30 205 41 50
10 100 19 113 19 12 0 60 9 105 19 45 10 136 29 202 41 66 12 163 30 215 40
274 54 503 97 555 105 22 3 69 12 105 20 104 22 266 53 390 75 63 11 158 29
210 40 52 10 147 29 210 40 63 12 160 30 215 41 90 17 181 34 360 69 33 6 105
20 160 30 55 11 147 28 205 40 108 21 264 50 380 70 36 7 103 20 150 30 47 10
105 21 130 25 25 3 74 12 110 20 36 7 117 23 180 35 63 12 158 30 210 40 52
10 147 28 210 40 63 11 149 28 190 36 147 28 327 62 445 84 66 12 161 30 210
41 164 33 255 50 346 64 50 7 93 16 97 20 9 9 -19 61 -238 440 -72 124 -327
572 -364 640 -16 28 -45 79 -66 115 -21 36 -47 81 -58 100 -11 19 -44 78 -75
130 -30 52 -98 172 -151 265 -53 94 -101 177 -106 185 -6 8 -15 26 -22 40 -24
51 -72 120 -83 120 -6 0 -26 -8 -45 -18z"/>
<path d="M14170 9218 c-47 -57 -117 -139 -156 -183 -39 -44 -142 -163 -228
-265 -87 -102 -215 -250 -285 -330 -69 -80 -191 -222 -271 -314 -80 -93 -181
-210 -225 -259 -44 -50 -109 -125 -145 -167 -151 -178 -290 -340 -365 -425
-44 -49 -103 -117 -130 -150 -28 -33 -84 -98 -126 -145 -42 -47 -102 -117
-135 -156 -32 -38 -140 -164 -239 -278 -206 -237 -308 -356 -450 -523 -55 -65
-134 -156 -176 -203 -42 -47 -105 -119 -140 -162 -75 -90 -522 -608 -624 -723
-39 -44 -93 -107 -120 -140 -27 -33 -87 -102 -134 -153 -46 -52 -107 -122
-135 -157 -28 -34 -78 -92 -110 -129 l-59 -66 45 -58 c24 -31 51 -58 59 -60 9
-2 99 45 200 104 101 58 202 116 224 129 37 21 203 116 270 155 17 10 71 41
120 69 50 28 97 55 105 60 33 21 389 226 440 254 30 17 75 43 100 58 50 31 67
41 515 299 119 69 231 134 248 144 18 11 77 44 132 74 55 30 107 59 115 66 16
12 18 13 145 85 44 25 88 50 97 56 50 29 587 339 682 394 61 35 123 71 138 80
15 9 156 90 314 181 255 147 330 190 454 263 19 11 54 30 76 43 23 12 59 33
80 47 22 14 152 89 289 167 138 79 262 151 277 161 14 11 29 19 33 19 4 0 19
8 33 18 15 11 63 38 107 62 44 23 92 51 107 61 14 11 29 19 32 19 12 0 86 53
86 61 0 4 -17 34 -39 66 -35 53 -254 435 -863 1503 -239 419 -258 450 -273
450 -5 0 -48 -46 -95 -102z"/>
<path d="M11555 8901 c-38 -10 -99 -23 -135 -29 -96 -16 -256 -47 -420 -81
-80 -16 -208 -41 -285 -56 -77 -14 -171 -33 -210 -40 -38 -8 -97 -20 -130 -26
-33 -6 -100 -19 -150 -29 -180 -36 -312 -61 -390 -75 -44 -8 -109 -21 -145
-29 -36 -8 -162 -33 -280 -56 -118 -23 -258 -50 -310 -60 -52 -10 -237 -46
-410 -79 -173 -34 -355 -70 -405 -80 -49 -11 -142 -29 -205 -41 -63 -12 -155
-30 -205 -40 -49 -10 -153 -31 -230 -45 -77 -14 -158 -30 -180 -36 -22 -5 -76
-16 -120 -23 -89 -15 -376 -71 -700 -136 -113 -23 -269 -53 -405 -80 -58 -11
-150 -29 -205 -40 -273 -54 -456 -90 -515 -100 -36 -6 -94 -17 -130 -25 -36
-7 -112 -23 -170 -34 -58 -11 -150 -29 -205 -40 -55 -11 -118 -22 -140 -26
-22 -3 -63 -12 -91 -20 l-52 -15 -90 -157 c-49 -87 -99 -174 -110 -193 -10
-19 -135 -237 -277 -485 -551 -961 -1570 -2744 -1613 -2820 -24 -44 -68 -120
-97 -170 -29 -49 -89 -155 -135 -235 -45 -80 -93 -161 -106 -181 -13 -19 -24
-46 -24 -60 l0 -24 2307 3 c1705 2 2310 5 2320 14 8 6 48 54 90 107 43 53 107
128 143 166 37 39 112 125 168 192 56 67 106 125 112 128 5 3 63 70 130 148
251 295 353 414 403 467 29 30 96 107 150 170 53 63 125 147 159 186 156 177
277 316 482 553 77 90 173 200 211 243 103 117 311 357 422 488 53 63 124 144
157 180 34 36 94 106 135 155 41 50 102 119 135 155 34 36 111 123 171 193
285 331 346 402 425 493 47 53 115 131 153 173 37 42 121 139 186 216 65 78
127 147 136 155 10 8 54 60 99 115 45 55 110 132 147 170 73 78 258 292 392
454 49 58 116 133 148 166 63 65 69 82 42 123 -10 15 -23 36 -29 47 -15 27
-36 28 -119 6z"/>
<path d="M16250 5748 c-19 -12 -44 -27 -55 -34 -57 -33 -560 -324 -765 -442
-129 -74 -291 -167 -360 -207 -69 -40 -217 -125 -330 -190 -113 -65 -234 -135
-269 -157 -34 -21 -64 -38 -66 -38 -3 0 -52 -28 -375 -215 -69 -40 -242 -140
-385 -222 -143 -82 -305 -176 -360 -208 -122 -71 -128 -74 -290 -167 -71 -41
-206 -119 -300 -173 -93 -54 -228 -132 -300 -173 -198 -114 -305 -176 -361
-209 -28 -17 -67 -38 -87 -48 -20 -9 -37 -24 -37 -32 0 -11 5 -13 18 -7 12 6
4612 17 5805 14 16 0 8 20 -44 118 -34 64 -89 161 -121 215 -32 53 -58 99 -58
101 0 3 -59 107 -132 233 -72 125 -145 253 -162 284 -17 31 -60 105 -94 165
-119 204 -260 448 -380 659 -43 77 -140 246 -214 375 -74 129 -147 258 -162
285 -27 49 -64 95 -75 95 -3 0 -22 -10 -41 -22z"/>
</g>
</svg>
